<svg height="512pt" viewBox="0 -38 512 512" width="512pt" xmlns="http://www.w3.org/2000/svg"><path d="m512 115c0-63.410156-51.589844-115-115-115h-282c-63.410156 0-115 51.589844-115 115v78.726562h64.683594l-37.019532 84.5v156.828126h456.667969v-156.828126l-37.015625-84.5h64.683594zm-30 48.726562h-47.828125l-10.960937-25.027343v-22.226563c0-29.25-23.800782-53.050781-53.054688-53.050781s-53.050781 23.800781-53.050781 53.050781v10.371094h-122.210938v-10.371094c0-29.25-23.796875-53.050781-53.050781-53.050781s-53.054688 23.800781-53.054688 53.050781v22.226563l-10.960937 25.027343h-47.828125v-48.726562c0-46.867188 38.132812-85 85-85h282c46.867188 0 85 38.132812 85 85zm-27.667969 241.328126h-118.421875c25.570313-22.320313 41.753906-55.136719 41.753906-91.664063 0-67.085937-54.578124-121.667969-121.664062-121.667969-67.089844 0-121.667969 54.582032-121.667969 121.667969 0 36.527344 16.183594 69.34375 41.757813 91.664063h-118.421875v-120.542969l61.121093-139.527344v-28.507813c0-12.710937 10.34375-23.054687 23.054688-23.054687s23.050781 10.34375 23.050781 23.054687v40.367188h182.210938v-40.367188c0-12.710937 10.339843-23.054687 23.050781-23.054687s23.054688 10.34375 23.054688 23.054687v28.507813l61.125 139.527344v120.542969zm-198.332031 0c-50.546875 0-91.667969-41.121094-91.667969-91.664063 0-50.546875 41.121094-91.667969 91.667969-91.667969s91.667969 41.121094 91.667969 91.667969c0 50.542969-41.121094 91.664063-91.667969 91.664063zm0 0"/><path d="m256 266.390625c-25.914062 0-47 21.082031-47 47 0 25.914063 21.085938 47 47 47s47-21.085937 47-47c0-25.917969-21.085938-47-47-47zm0 64c-9.375 0-17-7.628906-17-17 0-9.375 7.625-17 17-17s17 7.625 17 17c0 9.371094-7.625 17-17 17zm0 0"/></svg>