<?xml version="1.0" encoding="iso-8859-1"?>
<!-- Generator: Adobe Illustrator 19.0.0, SVG Export Plug-In . SVG Version: 6.00 Build 0)  -->
<svg version="1.1" id="Layer_1" xmlns="http://www.w3.org/2000/svg" xmlns:xlink="http://www.w3.org/1999/xlink" x="0px" y="0px"
	 viewBox="0 0 512 512" style="enable-background:new 0 0 512 512;" xml:space="preserve">
<g>
	<g>
		<path d="M339.478,339.478H239.304c-9.206,0-16.696-7.49-16.696-16.696v-50.087h116.87c27.618,0,50.087-22.469,50.087-50.087
			c0-27.618-22.469-50.087-50.087-50.087h-116.87v-50.087c0-27.618-22.469-50.087-50.087-50.087
			c-27.618,0-50.087,22.469-50.087,50.087v200.348c0,64.442,52.428,116.87,116.87,116.87h100.174
			c27.618,0,50.087-22.469,50.087-50.087C389.565,361.947,367.096,339.478,339.478,339.478z M339.478,406.261H239.304
			c-46.03,0-83.478-37.448-83.478-83.478V122.435c0-9.206,7.49-16.696,16.696-16.696c9.206,0,16.696,7.49,16.696,16.696v66.783
			c0,9.22,7.475,16.696,16.696,16.696h133.565c9.206,0,16.696,7.49,16.696,16.696s-7.49,16.696-16.696,16.696H205.913
			c-9.22,0-16.696,7.475-16.696,16.696v66.783c0,27.618,22.469,50.087,50.087,50.087h100.174c9.206,0,16.696,7.49,16.696,16.696
			C356.174,398.771,348.684,406.261,339.478,406.261z"/>
	</g>
</g>
<g>
	<g>
		<path d="M422.957,0H89.044C39.945,0,0,39.945,0,89.044v333.913C0,472.055,39.945,512,89.044,512h333.913
			C472.055,512,512,472.055,512,422.957V89.044C512,39.945,472.055,0,422.957,0z M478.609,422.957
			c0,30.687-24.966,55.652-55.652,55.652H89.044c-30.687,0-55.652-24.966-55.652-55.652V89.044
			c0-30.687,24.966-55.652,55.652-55.652h333.913c30.687,0,55.652,24.966,55.652,55.652V422.957z"/>
	</g>
</g>
<g>
</g>
<g>
</g>
<g>
</g>
<g>
</g>
<g>
</g>
<g>
</g>
<g>
</g>
<g>
</g>
<g>
</g>
<g>
</g>
<g>
</g>
<g>
</g>
<g>
</g>
<g>
</g>
<g>
</g>
</svg>
